# MagicaVoxel @ Ephtracy

# group
o 

# material
mtllib cam.mtl
usemtl palette

# normals
vn -1 0 0
vn 1 0 0
vn 0 0 1
vn 0 0 -1
vn 0 -1 0
vn 0 1 0

# texcoords
vt 0.841797 0.5
vt 0.884766 0.5
vt 0.958984 0.5
vt 0.962891 0.5
vt 0.966797 0.5
vt 0.974609 0.5
vt 0.978516 0.5
vt 0.982422 0.5

# verts
v -0.8 1.8 -5.96046e-08
v -0.8 1.8 -0.8
v -0.8 2.6 -5.96046e-08
v -0.8 2.6 -0.8
v -0.7 1.6 0.2
v -0.7 1.6 -1
v -0.7 1.8 -5.96046e-08
v -0.7 1.8 -0.8
v -0.7 2.6 -5.96046e-08
v -0.7 2.6 -0.8
v -0.7 2.8 0.2
v -0.7 2.8 -1
v -0.6 2.8 -0.7
v -0.6 2.8 -0.8
v -0.6 3 -0.7
v -0.6 3 -0.8
v -0.4 1.9 -1
v -0.4 1.9 -1.1
v -0.4 2 -1.1
v -0.4 2 -1.2
v -0.4 2 -1.3
v -0.4 2 -1.4
v -0.4 2.1 -1.4
v -0.4 2.1 -1.5
v -0.4 2.3 -1.4
v -0.4 2.3 -1.5
v -0.4 2.4 -1.1
v -0.4 2.4 -1.2
v -0.4 2.4 -1.3
v -0.4 2.4 -1.4
v -0.4 2.5 -1
v -0.4 2.5 -1.1
v -0.3 1.9 -1.1
v -0.3 1.9 -1.2
v -0.3 1.9 -1.3
v -0.3 1.9 -1.4
v -0.3 2 -1.1
v -0.3 2 -1.2
v -0.3 2 -1.3
v -0.3 2 -1.4
v -0.3 2 -1.5
v -0.3 2.1 -1.4
v -0.3 2.1 -1.5
v -0.3 2.1 -1.6
v -0.3 2.3 -1.4
v -0.3 2.3 -1.5
v -0.3 2.3 -1.6
v -0.3 2.4 -1.1
v -0.3 2.4 -1.2
v -0.3 2.4 -1.3
v -0.3 2.4 -1.4
v -0.3 2.4 -1.5
v -0.3 2.5 -1.1
v -0.3 2.5 -1.2
v -0.3 2.5 -1.3
v -0.3 2.5 -1.4
v -0.2 1.9 -1.4
v -0.2 1.9 -1.5
v -0.2 2 -1.4
v -0.2 2 -1.5
v -0.2 2 -1.6
v -0.2 2.1 -1.5
v -0.2 2.1 -1.6
v -0.2 2.3 -1.5
v -0.2 2.3 -1.6
v -0.2 2.4 -1.4
v -0.2 2.4 -1.5
v -0.2 2.4 -1.6
v -0.2 2.5 -1.4
v -0.2 2.5 -1.5
v -0.5 2.8 -0.7
v -0.5 2.8 -0.8
v -0.5 3 -0.7
v -0.5 3 -0.8
v 5.96046e-08 1.9 -1.4
v 5.96046e-08 1.9 -1.5
v 5.96046e-08 2 -1.4
v 5.96046e-08 2 -1.5
v 5.96046e-08 2 -1.6
v 5.96046e-08 2.1 -1.5
v 5.96046e-08 2.1 -1.6
v 5.96046e-08 2.3 -1.5
v 5.96046e-08 2.3 -1.6
v 5.96046e-08 2.4 -1.4
v 5.96046e-08 2.4 -1.5
v 5.96046e-08 2.4 -1.6
v 5.96046e-08 2.5 -1.4
v 5.96046e-08 2.5 -1.5
v 0.1 1.9 -1.1
v 0.1 1.9 -1.2
v 0.1 1.9 -1.3
v 0.1 1.9 -1.4
v 0.1 2 -1.1
v 0.1 2 -1.2
v 0.1 2 -1.3
v 0.1 2 -1.4
v 0.1 2 -1.5
v 0.1 2.1 -1.4
v 0.1 2.1 -1.5
v 0.1 2.1 -1.6
v 0.1 2.3 -1.4
v 0.1 2.3 -1.5
v 0.1 2.3 -1.6
v 0.1 2.4 -1.1
v 0.1 2.4 -1.2
v 0.1 2.4 -1.3
v 0.1 2.4 -1.4
v 0.1 2.4 -1.5
v 0.1 2.5 -1.1
v 0.1 2.5 -1.2
v 0.1 2.5 -1.3
v 0.1 2.5 -1.4
v 0.2 1.9 -1
v 0.2 1.9 -1.1
v 0.2 2 -1.1
v 0.2 2 -1.2
v 0.2 2 -1.3
v 0.2 2 -1.4
v 0.2 2.1 -1.4
v 0.2 2.1 -1.5
v 0.2 2.3 -1.4
v 0.2 2.3 -1.5
v 0.2 2.4 -1.1
v 0.2 2.4 -1.2
v 0.2 2.4 -1.3
v 0.2 2.4 -1.4
v 0.2 2.5 -1
v 0.2 2.5 -1.1
v 0.5 1.6 0.2
v 0.5 1.6 -1
v 0.5 2.8 0.2
v 0.5 2.8 -1
v -0.7 1.6 0.2
v -0.7 2.8 0.2
v -0.6 1.7 0.2
v -0.6 2.7 0.2
v -0.5 2.5 0.2
v -0.5 2.6 0.2
v -0.3 2.5 0.2
v -0.3 2.6 0.2
v 0.4 1.7 0.2
v 0.4 2.7 0.2
v 0.5 1.6 0.2
v 0.5 2.8 0.2
v -0.8 1.8 -5.96046e-08
v -0.8 2.6 -5.96046e-08
v -0.7 1.8 -5.96046e-08
v -0.7 2.6 -5.96046e-08
v -0.6 2.8 -0.7
v -0.6 3 -0.7
v -0.5 2.8 -0.7
v -0.5 3 -0.7
v -0.4 2 -1.3
v -0.4 2.4 -1.3
v -0.3 1.9 -1.3
v -0.3 2 -1.3
v -0.3 2.4 -1.3
v -0.3 2.5 -1.3
v 0.1 1.9 -1.3
v 0.1 2 -1.3
v 0.1 2.4 -1.3
v 0.1 2.5 -1.3
v 0.2 2 -1.3
v 0.2 2.4 -1.3
v -0.8 1.8 -0.8
v -0.8 2.6 -0.8
v -0.7 1.8 -0.8
v -0.7 2.6 -0.8
v -0.6 2.8 -0.8
v -0.6 3 -0.8
v -0.5 2.8 -0.8
v -0.5 3 -0.8
v -0.7 1.6 -1
v -0.7 2.8 -1
v -0.4 1.9 -1
v -0.4 2.5 -1
v 0.2 1.9 -1
v 0.2 2.5 -1
v 0.5 1.6 -1
v 0.5 2.8 -1
v -0.4 1.9 -1.1
v -0.4 2 -1.1
v -0.4 2.4 -1.1
v -0.4 2.5 -1.1
v -0.3 1.9 -1.1
v -0.3 2 -1.1
v -0.3 2.4 -1.1
v -0.3 2.5 -1.1
v 0.1 1.9 -1.1
v 0.1 2 -1.1
v 0.1 2.4 -1.1
v 0.1 2.5 -1.1
v 0.2 1.9 -1.1
v 0.2 2 -1.1
v 0.2 2.4 -1.1
v 0.2 2.5 -1.1
v -0.4 2 -1.2
v -0.4 2.4 -1.2
v -0.3 1.9 -1.2
v -0.3 2 -1.2
v -0.3 2.4 -1.2
v -0.3 2.5 -1.2
v 0.1 1.9 -1.2
v 0.1 2 -1.2
v 0.1 2.4 -1.2
v 0.1 2.5 -1.2
v 0.2 2 -1.2
v 0.2 2.4 -1.2
v -0.4 2 -1.4
v -0.4 2.1 -1.4
v -0.4 2.3 -1.4
v -0.4 2.4 -1.4
v -0.3 1.9 -1.4
v -0.3 2 -1.4
v -0.3 2.1 -1.4
v -0.3 2.3 -1.4
v -0.3 2.4 -1.4
v -0.3 2.5 -1.4
v -0.2 1.9 -1.4
v -0.2 2 -1.4
v -0.2 2.4 -1.4
v -0.2 2.5 -1.4
v 5.96046e-08 1.9 -1.4
v 5.96046e-08 2 -1.4
v 5.96046e-08 2.4 -1.4
v 5.96046e-08 2.5 -1.4
v 0.1 1.9 -1.4
v 0.1 2 -1.4
v 0.1 2.1 -1.4
v 0.1 2.3 -1.4
v 0.1 2.4 -1.4
v 0.1 2.5 -1.4
v 0.2 2 -1.4
v 0.2 2.1 -1.4
v 0.2 2.3 -1.4
v 0.2 2.4 -1.4
v -0.4 2.1 -1.5
v -0.4 2.3 -1.5
v -0.3 2 -1.5
v -0.3 2.1 -1.5
v -0.3 2.3 -1.5
v -0.3 2.4 -1.5
v -0.2 1.9 -1.5
v -0.2 2 -1.5
v -0.2 2.1 -1.5
v -0.2 2.3 -1.5
v -0.2 2.4 -1.5
v -0.2 2.5 -1.5
v 5.96046e-08 1.9 -1.5
v 5.96046e-08 2 -1.5
v 5.96046e-08 2.1 -1.5
v 5.96046e-08 2.3 -1.5
v 5.96046e-08 2.4 -1.5
v 5.96046e-08 2.5 -1.5
v 0.1 2 -1.5
v 0.1 2.1 -1.5
v 0.1 2.3 -1.5
v 0.1 2.4 -1.5
v 0.2 2.1 -1.5
v 0.2 2.3 -1.5
v -0.3 2.1 -1.6
v -0.3 2.3 -1.6
v -0.2 2 -1.6
v -0.2 2.1 -1.6
v -0.2 2.3 -1.6
v -0.2 2.4 -1.6
v -0.1 2.2 -1.6
v -0.1 2.3 -1.6
v 5.96046e-08 2 -1.6
v 5.96046e-08 2.1 -1.6
v 5.96046e-08 2.2 -1.6
v 5.96046e-08 2.3 -1.6
v 5.96046e-08 2.4 -1.6
v 0.1 2.1 -1.6
v 0.1 2.3 -1.6
v -0.7 1.6 0.2
v 0.5 1.6 0.2
v -0.7 1.6 -1
v 0.5 1.6 -1
v -0.8 1.8 -5.96046e-08
v -0.7 1.8 -5.96046e-08
v -0.8 1.8 -0.8
v -0.7 1.8 -0.8
v -0.4 1.9 -1
v 0.2 1.9 -1
v -0.4 1.9 -1.1
v -0.3 1.9 -1.1
v 0.1 1.9 -1.1
v 0.2 1.9 -1.1
v -0.3 1.9 -1.2
v 0.1 1.9 -1.2
v -0.3 1.9 -1.3
v 0.1 1.9 -1.3
v -0.3 1.9 -1.4
v -0.2 1.9 -1.4
v 5.96046e-08 1.9 -1.4
v 0.1 1.9 -1.4
v -0.2 1.9 -1.5
v 5.96046e-08 1.9 -1.5
v -0.4 2 -1.1
v -0.3 2 -1.1
v 0.1 2 -1.1
v 0.2 2 -1.1
v -0.4 2 -1.2
v -0.3 2 -1.2
v 0.1 2 -1.2
v 0.2 2 -1.2
v -0.4 2 -1.3
v -0.3 2 -1.3
v 0.1 2 -1.3
v 0.2 2 -1.3
v -0.4 2 -1.4
v -0.3 2 -1.4
v -0.2 2 -1.4
v 5.96046e-08 2 -1.4
v 0.1 2 -1.4
v 0.2 2 -1.4
v -0.3 2 -1.5
v -0.2 2 -1.5
v 5.96046e-08 2 -1.5
v 0.1 2 -1.5
v -0.2 2 -1.6
v 5.96046e-08 2 -1.6
v -0.4 2.1 -1.4
v -0.3 2.1 -1.4
v 0.1 2.1 -1.4
v 0.2 2.1 -1.4
v -0.4 2.1 -1.5
v -0.3 2.1 -1.5
v -0.2 2.1 -1.5
v 5.96046e-08 2.1 -1.5
v 0.1 2.1 -1.5
v 0.2 2.1 -1.5
v -0.3 2.1 -1.6
v -0.2 2.1 -1.6
v 5.96046e-08 2.1 -1.6
v 0.1 2.1 -1.6
v -0.4 2.3 -1.4
v -0.3 2.3 -1.4
v 0.1 2.3 -1.4
v 0.2 2.3 -1.4
v -0.4 2.3 -1.5
v -0.3 2.3 -1.5
v -0.2 2.3 -1.5
v 5.96046e-08 2.3 -1.5
v 0.1 2.3 -1.5
v 0.2 2.3 -1.5
v -0.3 2.3 -1.6
v -0.2 2.3 -1.6
v 5.96046e-08 2.3 -1.6
v 0.1 2.3 -1.6
v -0.4 2.4 -1.1
v -0.3 2.4 -1.1
v 0.1 2.4 -1.1
v 0.2 2.4 -1.1
v -0.4 2.4 -1.2
v -0.3 2.4 -1.2
v 0.1 2.4 -1.2
v 0.2 2.4 -1.2
v -0.4 2.4 -1.3
v -0.3 2.4 -1.3
v 0.1 2.4 -1.3
v 0.2 2.4 -1.3
v -0.4 2.4 -1.4
v -0.3 2.4 -1.4
v -0.2 2.4 -1.4
v 5.96046e-08 2.4 -1.4
v 0.1 2.4 -1.4
v 0.2 2.4 -1.4
v -0.3 2.4 -1.5
v -0.2 2.4 -1.5
v 5.96046e-08 2.4 -1.5
v 0.1 2.4 -1.5
v -0.2 2.4 -1.6
v 5.96046e-08 2.4 -1.6
v -0.4 2.5 -1
v 0.2 2.5 -1
v -0.4 2.5 -1.1
v -0.3 2.5 -1.1
v 0.1 2.5 -1.1
v 0.2 2.5 -1.1
v -0.3 2.5 -1.2
v 0.1 2.5 -1.2
v -0.3 2.5 -1.3
v 0.1 2.5 -1.3
v -0.3 2.5 -1.4
v -0.2 2.5 -1.4
v 5.96046e-08 2.5 -1.4
v 0.1 2.5 -1.4
v -0.2 2.5 -1.5
v 5.96046e-08 2.5 -1.5
v -0.8 2.6 -5.96046e-08
v -0.7 2.6 -5.96046e-08
v -0.8 2.6 -0.8
v -0.7 2.6 -0.8
v -0.7 2.8 0.2
v 0.5 2.8 0.2
v -0.6 2.8 -0.7
v -0.5 2.8 -0.7
v -0.6 2.8 -0.8
v -0.5 2.8 -0.8
v -0.7 2.8 -1
v 0.5 2.8 -1
v -0.6 3 -0.7
v -0.5 3 -0.7
v -0.6 3 -0.8
v -0.5 3 -0.8

# faces
f 3/6/1 2/6/1 1/6/1
f 4/6/1 2/6/1 3/6/1
f 7/8/1 6/8/1 5/8/1
f 8/8/1 6/8/1 7/8/1
f 9/8/1 7/8/1 5/8/1
f 10/8/1 6/8/1 8/8/1
f 11/8/1 9/8/1 5/8/1
f 11/8/1 10/8/1 9/8/1
f 12/8/1 6/8/1 10/8/1
f 12/8/1 10/8/1 11/8/1
f 15/6/1 14/6/1 13/6/1
f 16/6/1 14/6/1 15/6/1
f 19/7/1 18/7/1 17/7/1
f 23/7/1 22/7/1 21/7/1
f 25/7/1 23/7/1 21/7/1
f 25/7/1 24/7/1 23/7/1
f 26/7/1 24/7/1 25/7/1
f 27/7/1 19/7/1 17/7/1
f 27/6/1 20/6/1 19/6/1
f 28/6/1 20/6/1 27/6/1
f 29/7/1 25/7/1 21/7/1
f 30/7/1 25/7/1 29/7/1
f 31/7/1 27/7/1 17/7/1
f 32/7/1 27/7/1 31/7/1
f 37/6/1 34/6/1 33/6/1
f 38/6/1 34/6/1 37/6/1
f 39/7/1 36/7/1 35/7/1
f 40/7/1 36/7/1 39/7/1
f 42/7/1 41/7/1 40/7/1
f 43/7/1 41/7/1 42/7/1
f 46/7/1 44/7/1 43/7/1
f 47/7/1 44/7/1 46/7/1
f 49/6/1 39/6/1 38/6/1
f 50/6/1 39/6/1 49/6/1
f 51/7/1 46/7/1 45/7/1
f 52/7/1 46/7/1 51/7/1
f 53/6/1 49/6/1 48/6/1
f 54/6/1 49/6/1 53/6/1
f 55/7/1 51/7/1 50/7/1
f 56/7/1 51/7/1 55/7/1
f 59/7/1 58/7/1 57/7/1
f 60/7/1 58/7/1 59/7/1
f 62/7/1 61/7/1 60/7/1
f 63/7/1 61/7/1 62/7/1
f 67/7/1 65/7/1 64/7/1
f 68/7/1 65/7/1 67/7/1
f 69/7/1 67/7/1 66/7/1
f 70/7/1 67/7/1 69/7/1
f 71/6/2 72/6/2 73/6/2
f 73/6/2 72/6/2 74/6/2
f 75/7/2 76/7/2 77/7/2
f 77/7/2 76/7/2 78/7/2
f 78/7/2 79/7/2 80/7/2
f 80/7/2 79/7/2 81/7/2
f 82/7/2 83/7/2 85/7/2
f 85/7/2 83/7/2 86/7/2
f 84/7/2 85/7/2 87/7/2
f 87/7/2 85/7/2 88/7/2
f 89/6/2 90/6/2 93/6/2
f 93/6/2 90/6/2 94/6/2
f 91/7/2 92/7/2 95/7/2
f 95/7/2 92/7/2 96/7/2
f 96/7/2 97/7/2 98/7/2
f 98/7/2 97/7/2 99/7/2
f 99/7/2 100/7/2 102/7/2
f 102/7/2 100/7/2 103/7/2
f 94/6/2 95/6/2 105/6/2
f 105/6/2 95/6/2 106/6/2
f 101/7/2 102/7/2 107/7/2
f 107/7/2 102/7/2 108/7/2
f 104/6/2 105/6/2 109/6/2
f 109/6/2 105/6/2 110/6/2
f 106/7/2 107/7/2 111/7/2
f 111/7/2 107/7/2 112/7/2
f 113/7/2 114/7/2 115/7/2
f 117/7/2 118/7/2 119/7/2
f 117/7/2 119/7/2 121/7/2
f 119/7/2 120/7/2 121/7/2
f 121/7/2 120/7/2 122/7/2
f 113/7/2 115/7/2 123/7/2
f 115/6/2 116/6/2 123/6/2
f 123/6/2 116/6/2 124/6/2
f 117/7/2 121/7/2 125/7/2
f 125/7/2 121/7/2 126/7/2
f 113/7/2 123/7/2 127/7/2
f 127/7/2 123/7/2 128/7/2
f 129/8/2 130/8/2 131/8/2
f 131/8/2 130/8/2 132/8/2
f 135/8/3 134/8/3 133/8/3
f 136/8/3 134/8/3 135/8/3
f 137/3/3 136/3/3 135/3/3
f 138/3/3 136/3/3 137/3/3
f 139/3/3 137/3/3 135/3/3
f 139/1/3 138/1/3 137/1/3
f 140/3/3 136/3/3 138/3/3
f 140/1/3 138/1/3 139/1/3
f 141/8/3 135/8/3 133/8/3
f 141/3/3 139/3/3 135/3/3
f 141/3/3 140/3/3 139/3/3
f 142/3/3 136/3/3 140/3/3
f 142/3/3 140/3/3 141/3/3
f 142/8/3 134/8/3 136/8/3
f 143/8/3 141/8/3 133/8/3
f 143/8/3 142/8/3 141/8/3
f 144/8/3 134/8/3 142/8/3
f 144/8/3 142/8/3 143/8/3
f 147/6/3 146/6/3 145/6/3
f 148/6/3 146/6/3 147/6/3
f 151/6/3 150/6/3 149/6/3
f 152/6/3 150/6/3 151/6/3
f 156/7/3 154/7/3 153/7/3
f 157/7/3 154/7/3 156/7/3
f 159/7/3 156/7/3 155/7/3
f 160/7/3 156/7/3 159/7/3
f 161/7/3 158/7/3 157/7/3
f 162/7/3 158/7/3 161/7/3
f 163/7/3 161/7/3 160/7/3
f 164/7/3 161/7/3 163/7/3
f 165/6/4 166/6/4 167/6/4
f 167/6/4 166/6/4 168/6/4
f 169/6/4 170/6/4 171/6/4
f 171/6/4 170/6/4 172/6/4
f 173/8/4 174/8/4 175/8/4
f 175/8/4 174/8/4 176/8/4
f 173/8/4 175/8/4 177/8/4
f 176/8/4 174/8/4 178/8/4
f 173/8/4 177/8/4 179/8/4
f 177/8/4 178/8/4 179/8/4
f 178/8/4 174/8/4 180/8/4
f 179/8/4 178/8/4 180/8/4
f 181/7/4 182/7/4 185/7/4
f 185/7/4 182/7/4 186/7/4
f 183/7/4 184/7/4 187/7/4
f 187/7/4 184/7/4 188/7/4
f 189/7/4 190/7/4 193/7/4
f 193/7/4 190/7/4 194/7/4
f 191/7/4 192/7/4 195/7/4
f 195/7/4 192/7/4 196/7/4
f 197/6/4 198/6/4 200/6/4
f 200/6/4 198/6/4 201/6/4
f 199/6/4 200/6/4 203/6/4
f 203/6/4 200/6/4 204/6/4
f 201/6/4 202/6/4 205/6/4
f 205/6/4 202/6/4 206/6/4
f 204/6/4 205/6/4 207/6/4
f 207/6/4 205/6/4 208/6/4
f 209/7/4 210/7/4 214/7/4
f 214/7/4 210/7/4 215/7/4
f 211/7/4 212/7/4 216/7/4
f 216/7/4 212/7/4 217/7/4
f 213/7/4 214/7/4 219/7/4
f 219/7/4 214/7/4 220/7/4
f 217/7/4 218/7/4 221/7/4
f 221/7/4 218/7/4 222/7/4
f 223/7/4 224/7/4 227/7/4
f 227/7/4 224/7/4 228/7/4
f 225/7/4 226/7/4 231/7/4
f 231/7/4 226/7/4 232/7/4
f 228/7/4 229/7/4 233/7/4
f 233/7/4 229/7/4 234/7/4
f 230/7/4 231/7/4 235/7/4
f 235/7/4 231/7/4 236/7/4
f 237/7/4 238/7/4 240/7/4
f 240/7/4 238/7/4 241/7/4
f 239/7/4 240/7/4 244/7/4
f 244/7/4 240/7/4 245/7/4
f 241/7/4 242/7/4 246/7/4
f 246/7/4 242/7/4 247/7/4
f 243/7/4 244/7/4 249/7/4
f 249/7/4 244/7/4 250/7/4
f 247/7/4 248/7/4 253/7/4
f 253/7/4 248/7/4 254/7/4
f 250/7/4 251/7/4 255/7/4
f 255/7/4 251/7/4 256/7/4
f 252/7/4 253/7/4 257/7/4
f 257/7/4 253/7/4 258/7/4
f 256/7/4 257/7/4 259/7/4
f 259/7/4 257/7/4 260/7/4
f 261/7/4 262/7/4 264/7/4
f 264/7/4 262/7/4 265/7/4
f 264/5/4 265/5/4 267/5/4
f 265/7/4 266/7/4 268/7/4
f 267/5/4 265/5/4 268/5/4
f 263/7/4 264/7/4 269/7/4
f 264/5/4 267/5/4 270/5/4
f 269/7/4 264/7/4 270/7/4
f 267/4/4 268/4/4 271/4/4
f 270/5/4 267/5/4 271/5/4
f 268/7/4 266/7/4 272/7/4
f 271/4/4 268/4/4 272/4/4
f 272/7/4 266/7/4 273/7/4
f 270/7/4 271/7/4 274/7/4
f 271/7/4 272/7/4 274/7/4
f 274/7/4 272/7/4 275/7/4
f 278/8/5 277/8/5 276/8/5
f 279/8/5 277/8/5 278/8/5
f 282/6/5 281/6/5 280/6/5
f 283/6/5 281/6/5 282/6/5
f 286/7/5 285/7/5 284/7/5
f 287/7/5 285/7/5 286/7/5
f 288/7/5 285/7/5 287/7/5
f 289/7/5 285/7/5 288/7/5
f 290/6/5 288/6/5 287/6/5
f 291/6/5 288/6/5 290/6/5
f 294/7/5 293/7/5 292/7/5
f 295/7/5 293/7/5 294/7/5
f 296/7/5 293/7/5 295/7/5
f 297/7/5 293/7/5 296/7/5
f 298/7/5 296/7/5 295/7/5
f 299/7/5 296/7/5 298/7/5
f 304/6/5 301/6/5 300/6/5
f 305/6/5 301/6/5 304/6/5
f 306/6/5 303/6/5 302/6/5
f 307/6/5 303/6/5 306/6/5
f 309/6/5 306/6/5 305/6/5
f 310/6/5 306/6/5 309/6/5
f 312/7/5 309/7/5 308/7/5
f 313/7/5 309/7/5 312/7/5
f 316/7/5 311/7/5 310/7/5
f 317/7/5 311/7/5 316/7/5
f 318/7/5 314/7/5 313/7/5
f 319/7/5 314/7/5 318/7/5
f 320/7/5 316/7/5 315/7/5
f 321/7/5 316/7/5 320/7/5
f 322/7/5 320/7/5 319/7/5
f 323/7/5 320/7/5 322/7/5
f 328/7/5 325/7/5 324/7/5
f 329/7/5 325/7/5 328/7/5
f 332/7/5 327/7/5 326/7/5
f 333/7/5 327/7/5 332/7/5
f 334/7/5 330/7/5 329/7/5
f 335/7/5 330/7/5 334/7/5
f 336/7/5 332/7/5 331/7/5
f 337/7/5 332/7/5 336/7/5
f 338/7/6 339/7/6 342/7/6
f 342/7/6 339/7/6 343/7/6
f 340/7/6 341/7/6 346/7/6
f 346/7/6 341/7/6 347/7/6
f 343/7/6 344/7/6 348/7/6
f 348/7/6 344/7/6 349/7/6
f 345/7/6 346/7/6 350/7/6
f 350/7/6 346/7/6 351/7/6
f 352/6/6 353/6/6 356/6/6
f 356/6/6 353/6/6 357/6/6
f 354/6/6 355/6/6 358/6/6
f 358/6/6 355/6/6 359/6/6
f 357/6/6 358/6/6 361/6/6
f 361/6/6 358/6/6 362/6/6
f 360/7/6 361/7/6 364/7/6
f 364/7/6 361/7/6 365/7/6
f 362/7/6 363/7/6 368/7/6
f 368/7/6 363/7/6 369/7/6
f 365/7/6 366/7/6 370/7/6
f 370/7/6 366/7/6 371/7/6
f 367/7/6 368/7/6 372/7/6
f 372/7/6 368/7/6 373/7/6
f 371/7/6 372/7/6 374/7/6
f 374/7/6 372/7/6 375/7/6
f 376/7/6 377/7/6 378/7/6
f 378/7/6 377/7/6 379/7/6
f 379/7/6 377/7/6 380/7/6
f 380/7/6 377/7/6 381/7/6
f 379/6/6 380/6/6 382/6/6
f 382/6/6 380/6/6 383/6/6
f 384/7/6 385/7/6 386/7/6
f 386/7/6 385/7/6 387/7/6
f 387/7/6 385/7/6 388/7/6
f 388/7/6 385/7/6 389/7/6
f 387/7/6 388/7/6 390/7/6
f 390/7/6 388/7/6 391/7/6
f 392/6/6 393/6/6 394/6/6
f 394/6/6 393/6/6 395/6/6
f 396/8/6 397/8/6 398/8/6
f 398/8/6 397/8/6 399/8/6
f 396/8/6 398/8/6 400/8/6
f 399/8/6 397/8/6 401/8/6
f 396/8/6 400/8/6 402/8/6
f 400/8/6 401/8/6 402/8/6
f 401/8/6 397/8/6 403/8/6
f 402/8/6 401/8/6 403/8/6
f 404/6/6 405/6/6 406/6/6
f 406/6/6 405/6/6 407/6/6
