# MagicaVoxel @ Ephtracy

# group
o 

# material
mtllib waterfallll.mtl
usemtl palette

# normals
vn -1 0 0
vn 1 0 0
vn 0 0 1
vn 0 0 -1
vn 0 -1 0
vn 0 1 0

# texcoords
vt 0.306641 0.5
vt 0.775391 0.5
vt 0.822266 0.5
vt 0.919922 0.5

# verts
v -0.3 0 0.3
v -0.3 0 -0.3
v -0.3 0.3 -2.98023e-08
v -0.3 0.3 -0.1
v -0.3 0.4 -2.98023e-08
v -0.3 0.4 -0.1
v -0.3 0.6 0.1
v -0.3 0.6 -2.98023e-08
v -0.3 0.7 0.2
v -0.3 0.7 0.1
v -0.3 0.8 0.2
v -0.3 0.8 0.1
v -0.3 0.9 0.1
v -0.3 0.9 -2.98023e-08
v -0.3 1.1 -0.2
v -0.3 1.1 -0.3
v -0.3 1.2 -2.98023e-08
v -0.3 1.2 -0.1
v -0.3 1.3 0.2
v -0.3 1.3 0.1
v -0.3 1.3 -2.98023e-08
v -0.3 1.3 -0.1
v -0.3 1.3 -0.2
v -0.3 1.3 -0.3
v -0.3 1.4 0.1
v -0.3 1.4 -2.98023e-08
v -0.3 1.6 0.2
v -0.3 1.6 0.1
v -0.3 1.7 0.2
v -0.3 1.7 0.1
v -0.3 1.8 0.1
v -0.3 1.8 -2.98023e-08
v -0.3 1.9 -0.1
v -0.3 1.9 -0.2
v -0.3 2 -0.1
v -0.3 2 -0.2
v -0.3 2.2 0.1
v -0.3 2.2 -2.98023e-08
v -0.3 2.3 0.2
v -0.3 2.3 0.1
v -0.3 2.3 -0.2
v -0.3 2.3 -0.3
v -0.3 2.5 -0.2
v -0.3 2.5 -0.3
v -0.3 2.6 0.1
v -0.3 2.6 -0.1
v -0.3 2.7 -0.1
v -0.3 2.7 -0.2
v -0.3 2.8 0.1
v -0.3 2.8 -2.98023e-08
v -0.3 3.1 -2.98023e-08
v -0.3 3.1 -0.2
v -0.3 3.2 0.3
v -0.3 3.2 0.2
v -0.3 3.2 0.1
v -0.3 3.2 -2.98023e-08
v -0.3 3.2 -0.1
v -0.3 3.2 -0.2
v -0.3 3.3 -2.98023e-08
v -0.3 3.3 -0.1
v -0.3 3.4 -2.98023e-08
v -0.3 3.4 -0.1
v -0.3 3.4 -0.2
v -0.3 3.5 0.1
v -0.3 3.5 -2.98023e-08
v -0.3 3.6 0.3
v -0.3 3.6 0.2
v -0.3 4 0.3
v -0.3 4 -0.3
v 0.3 0 0.3
v 0.3 0 -0.3
v 0.3 0.1 -2.98023e-08
v 0.3 0.1 -0.1
v 0.3 0.3 -2.98023e-08
v 0.3 0.3 -0.1
v 0.3 0.4 0.3
v 0.3 0.4 0.2
v 0.3 0.4 0.1
v 0.3 0.4 -2.98023e-08
v 0.3 0.5 0.1
v 0.3 0.5 -2.98023e-08
v 0.3 0.6 0.3
v 0.3 0.6 0.2
v 0.3 0.6 0.1
v 0.3 0.6 -2.98023e-08
v 0.3 0.7 0.3
v 0.3 0.7 0.2
v 0.3 0.9 0.3
v 0.3 0.9 0.2
v 0.3 0.9 -0.1
v 0.3 0.9 -0.2
v 0.3 1 -0.1
v 0.3 1 -0.2
v 0.3 1.1 0.3
v 0.3 1.1 0.2
v 0.3 1.1 -0.1
v 0.3 1.1 -0.2
v 0.3 1.1 -0.3
v 0.3 1.2 0.3
v 0.3 1.2 0.2
v 0.3 1.2 -0.1
v 0.3 1.2 -0.2
v 0.3 1.3 -0.2
v 0.3 1.3 -0.3
v 0.3 1.5 0.1
v 0.3 1.5 -0.1
v 0.3 1.8 0.1
v 0.3 1.8 -2.98023e-08
v 0.3 1.8 -0.1
v 0.3 2 0.2
v 0.3 2 0.1
v 0.3 2.2 0.2
v 0.3 2.2 0.1
v 0.3 2.2 -2.98023e-08
v 0.3 2.2 -0.1
v 0.3 2.3 -0.1
v 0.3 2.3 -0.2
v 0.3 2.4 -0.1
v 0.3 2.4 -0.2
v 0.3 2.5 0.2
v 0.3 2.5 0.1
v 0.3 2.5 -2.98023e-08
v 0.3 2.7 0.2
v 0.3 2.7 0.1
v 0.3 2.8 0.1
v 0.3 2.8 -2.98023e-08
v 0.3 2.8 -0.2
v 0.3 2.8 -0.3
v 0.3 2.9 -0.2
v 0.3 2.9 -0.3
v 0.3 3 0.2
v 0.3 3 0.1
v 0.3 3.1 -0.2
v 0.3 3.1 -0.3
v 0.3 3.2 0.2
v 0.3 3.2 0.1
v 0.3 3.4 0.1
v 0.3 3.4 -2.98023e-08
v 0.3 3.4 -0.2
v 0.3 3.4 -0.3
v 0.3 3.6 0.1
v 0.3 3.6 -2.98023e-08
v 0.3 4 0.3
v 0.3 4 -0.3
v -0.3 0 0.3
v -0.3 3.2 0.3
v -0.3 3.6 0.3
v -0.3 4 0.3
v -0.2 0.4 0.3
v -0.2 0.5 0.3
v -0.2 1.6 0.3
v -0.2 1.7 0.3
v -0.2 2.4 0.3
v -0.2 2.8 0.3
v -0.1 0.4 0.3
v -0.1 0.5 0.3
v -0.1 1.3 0.3
v -0.1 1.4 0.3
v -0.1 1.6 0.3
v -0.1 1.7 0.3
v -0.1 1.8 0.3
v -0.1 1.9 0.3
v -0.1 2 0.3
v -0.1 2.2 0.3
v -0.1 3.2 0.3
v -0.1 3.6 0.3
v 2.98023e-08 0.7 0.3
v 2.98023e-08 1 0.3
v 2.98023e-08 1.3 0.3
v 2.98023e-08 1.4 0.3
v 2.98023e-08 1.6 0.3
v 2.98023e-08 1.8 0.3
v 2.98023e-08 1.9 0.3
v 2.98023e-08 2 0.3
v 2.98023e-08 2.4 0.3
v 2.98023e-08 2.8 0.3
v 0.1 0.7 0.3
v 0.1 0.8 0.3
v 0.1 1 0.3
v 0.1 1.1 0.3
v 0.1 1.3 0.3
v 0.1 1.7 0.3
v 0.1 1.9 0.3
v 0.1 2 0.3
v 0.1 2.2 0.3
v 0.2 0.4 0.3
v 0.2 0.6 0.3
v 0.2 0.7 0.3
v 0.2 0.8 0.3
v 0.2 0.9 0.3
v 0.2 1.1 0.3
v 0.2 1.2 0.3
v 0.2 1.3 0.3
v 0.2 1.6 0.3
v 0.2 1.7 0.3
v 0.2 2 0.3
v 0.3 0 0.3
v 0.3 0.4 0.3
v 0.3 0.6 0.3
v 0.3 0.7 0.3
v 0.3 0.9 0.3
v 0.3 1.1 0.3
v 0.3 1.2 0.3
v 0.3 4 0.3
v -0.3 0 -0.3
v -0.3 1.1 -0.3
v -0.3 1.3 -0.3
v -0.3 2.3 -0.3
v -0.3 2.5 -0.3
v -0.3 4 -0.3
v -0.2 0.2 -0.3
v -0.2 0.4 -0.3
v -0.2 1.1 -0.3
v -0.2 1.3 -0.3
v -0.2 2.3 -0.3
v -0.2 2.5 -0.3
v -0.2 3.1 -0.3
v -0.2 3.3 -0.3
v -0.1 0.2 -0.3
v -0.1 0.4 -0.3
v -0.1 0.6 -0.3
v -0.1 0.9 -0.3
v -0.1 1.5 -0.3
v -0.1 1.8 -0.3
v -0.1 3 -0.3
v -0.1 3.1 -0.3
v -0.1 3.2 -0.3
v -0.1 3.3 -0.3
v 2.98023e-08 0.6 -0.3
v 2.98023e-08 0.9 -0.3
v 2.98023e-08 1.5 -0.3
v 2.98023e-08 1.8 -0.3
v 2.98023e-08 1.9 -0.3
v 2.98023e-08 2.4 -0.3
v 2.98023e-08 3 -0.3
v 2.98023e-08 3.2 -0.3
v 0.1 0.6 -0.3
v 0.1 1.2 -0.3
v 0.1 1.9 -0.3
v 0.1 2.4 -0.3
v 0.1 3 -0.3
v 0.1 3.5 -0.3
v 0.2 0.6 -0.3
v 0.2 1.1 -0.3
v 0.2 1.2 -0.3
v 0.2 1.3 -0.3
v 0.2 2.8 -0.3
v 0.2 2.9 -0.3
v 0.2 3 -0.3
v 0.2 3.1 -0.3
v 0.2 3.4 -0.3
v 0.2 3.5 -0.3
v 0.3 0 -0.3
v 0.3 1.1 -0.3
v 0.3 1.3 -0.3
v 0.3 2.8 -0.3
v 0.3 2.9 -0.3
v 0.3 3.1 -0.3
v 0.3 3.4 -0.3
v 0.3 4 -0.3
v -0.3 0 0.3
v 0.3 0 0.3
v -0.3 0 -0.3
v 0.3 0 -0.3
v -0.3 4 0.3
v 0.3 4 0.3
v -0.3 4 -0.3
v 0.3 4 -0.3

# faces
f 3/4/1 2/4/1 1/4/1
f 4/4/1 2/4/1 3/4/1
f 5/4/1 3/4/1 1/4/1
f 5/3/1 4/3/1 3/3/1
f 6/4/1 2/4/1 4/4/1
f 6/3/1 4/3/1 5/3/1
f 7/4/1 5/4/1 1/4/1
f 7/4/1 6/4/1 5/4/1
f 8/4/1 6/4/1 7/4/1
f 9/4/1 7/4/1 1/4/1
f 10/3/1 8/3/1 7/3/1
f 10/4/1 7/4/1 9/4/1
f 11/4/1 9/4/1 1/4/1
f 11/2/1 10/2/1 9/2/1
f 12/3/1 8/3/1 10/3/1
f 12/2/1 10/2/1 11/2/1
f 13/4/1 12/4/1 11/4/1
f 13/3/1 8/3/1 12/3/1
f 14/4/1 6/4/1 8/4/1
f 14/3/1 8/3/1 13/3/1
f 15/4/1 2/4/1 6/4/1
f 15/4/1 6/4/1 14/4/1
f 15/4/1 14/4/1 13/4/1
f 16/4/1 2/4/1 15/4/1
f 17/4/1 15/4/1 13/4/1
f 18/4/1 15/4/1 17/4/1
f 19/4/1 11/4/1 1/4/1
f 19/4/1 13/4/1 11/4/1
f 19/4/1 17/4/1 13/4/1
f 20/4/1 17/4/1 19/4/1
f 21/2/1 18/2/1 17/2/1
f 21/4/1 17/4/1 20/4/1
f 22/4/1 15/4/1 18/4/1
f 22/2/1 18/2/1 21/2/1
f 23/3/1 16/3/1 15/3/1
f 23/4/1 15/4/1 22/4/1
f 24/3/1 16/3/1 23/3/1
f 25/2/1 21/2/1 20/2/1
f 25/3/1 20/3/1 19/3/1
f 26/4/1 24/4/1 23/4/1
f 26/2/1 21/2/1 25/2/1
f 26/4/1 22/4/1 21/4/1
f 26/4/1 23/4/1 22/4/1
f 27/3/1 25/3/1 19/3/1
f 27/4/1 19/4/1 1/4/1
f 28/4/1 26/4/1 25/4/1
f 28/3/1 25/3/1 27/3/1
f 29/4/1 27/4/1 1/4/1
f 29/4/1 28/4/1 27/4/1
f 30/4/1 26/4/1 28/4/1
f 30/4/1 28/4/1 29/4/1
f 31/2/1 30/2/1 29/2/1
f 31/4/1 26/4/1 30/4/1
f 32/4/1 24/4/1 26/4/1
f 32/4/1 26/4/1 31/4/1
f 33/4/1 24/4/1 32/4/1
f 34/4/1 24/4/1 33/4/1
f 35/4/1 33/4/1 32/4/1
f 35/3/1 34/3/1 33/3/1
f 36/4/1 24/4/1 34/4/1
f 36/3/1 34/3/1 35/3/1
f 37/2/1 31/2/1 29/2/1
f 37/2/1 32/2/1 31/2/1
f 38/4/1 36/4/1 35/4/1
f 38/2/1 32/2/1 37/2/1
f 38/4/1 35/4/1 32/4/1
f 39/4/1 29/4/1 1/4/1
f 39/2/1 37/2/1 29/2/1
f 40/4/1 38/4/1 37/4/1
f 40/2/1 37/2/1 39/2/1
f 41/4/1 24/4/1 36/4/1
f 41/4/1 38/4/1 40/4/1
f 41/4/1 36/4/1 38/4/1
f 42/4/1 24/4/1 41/4/1
f 43/4/1 40/4/1 39/4/1
f 43/4/1 41/4/1 40/4/1
f 43/2/1 42/2/1 41/2/1
f 44/2/1 42/2/1 43/2/1
f 45/4/1 43/4/1 39/4/1
f 45/4/1 44/4/1 43/4/1
f 46/4/1 44/4/1 45/4/1
f 47/2/1 46/2/1 45/2/1
f 47/4/1 44/4/1 46/4/1
f 48/4/1 44/4/1 47/4/1
f 49/4/1 45/4/1 39/4/1
f 49/2/1 47/2/1 45/2/1
f 49/2/1 48/2/1 47/2/1
f 50/2/1 48/2/1 49/2/1
f 51/4/1 50/4/1 49/4/1
f 51/2/1 48/2/1 50/2/1
f 52/4/1 44/4/1 48/4/1
f 52/2/1 48/2/1 51/2/1
f 53/4/1 39/4/1 1/4/1
f 53/4/1 51/4/1 49/4/1
f 53/4/1 52/4/1 51/4/1
f 53/4/1 49/4/1 39/4/1
f 54/4/1 52/4/1 53/4/1
f 55/4/1 52/4/1 54/4/1
f 56/4/1 52/4/1 55/4/1
f 57/4/1 52/4/1 56/4/1
f 58/4/1 44/4/1 52/4/1
f 58/4/1 52/4/1 57/4/1
f 59/4/1 57/4/1 56/4/1
f 59/2/1 56/2/1 55/2/1
f 60/2/1 58/2/1 57/2/1
f 60/4/1 57/4/1 59/4/1
f 61/2/1 59/2/1 55/2/1
f 61/3/1 60/3/1 59/3/1
f 62/2/1 58/2/1 60/2/1
f 62/3/1 60/3/1 61/3/1
f 63/4/1 44/4/1 58/4/1
f 63/2/1 58/2/1 62/2/1
f 64/4/1 55/4/1 54/4/1
f 64/2/1 61/2/1 55/2/1
f 65/4/1 62/4/1 61/4/1
f 65/2/1 61/2/1 64/2/1
f 65/4/1 63/4/1 62/4/1
f 66/2/1 54/2/1 53/2/1
f 67/4/1 64/4/1 54/4/1
f 67/2/1 54/2/1 66/2/1
f 67/4/1 65/4/1 64/4/1
f 68/4/1 67/4/1 66/4/1
f 69/4/1 63/4/1 65/4/1
f 69/4/1 67/4/1 68/4/1
f 69/4/1 44/4/1 63/4/1
f 69/4/1 65/4/1 67/4/1
f 70/4/2 71/4/2 72/4/2
f 72/4/2 71/4/2 73/4/2
f 70/4/2 72/4/2 74/4/2
f 72/3/2 73/3/2 74/3/2
f 73/4/2 71/4/2 75/4/2
f 74/3/2 73/3/2 75/3/2
f 70/4/2 74/4/2 76/4/2
f 74/4/2 75/4/2 76/4/2
f 76/4/2 75/4/2 77/4/2
f 77/4/2 75/4/2 78/4/2
f 78/4/2 75/4/2 79/4/2
f 77/4/2 78/4/2 80/4/2
f 78/2/2 79/2/2 80/2/2
f 79/4/2 75/4/2 81/4/2
f 80/2/2 79/2/2 81/2/2
f 76/2/2 77/2/2 82/2/2
f 77/4/2 80/4/2 83/4/2
f 82/2/2 77/2/2 83/2/2
f 80/3/2 81/3/2 84/3/2
f 83/4/2 80/4/2 84/4/2
f 81/4/2 75/4/2 85/4/2
f 84/3/2 81/3/2 85/3/2
f 83/4/2 84/4/2 86/4/2
f 82/4/2 83/4/2 86/4/2
f 84/4/2 85/4/2 86/4/2
f 86/4/2 85/4/2 87/4/2
f 86/2/2 87/2/2 88/2/2
f 87/4/2 85/4/2 89/4/2
f 88/2/2 87/2/2 89/2/2
f 75/4/2 71/4/2 90/4/2
f 89/4/2 85/4/2 90/4/2
f 85/4/2 75/4/2 90/4/2
f 90/4/2 71/4/2 91/4/2
f 88/4/2 89/4/2 92/4/2
f 89/4/2 90/4/2 92/4/2
f 90/2/2 91/2/2 92/2/2
f 91/4/2 71/4/2 93/4/2
f 92/2/2 91/2/2 93/2/2
f 88/4/2 92/4/2 94/4/2
f 92/4/2 93/4/2 94/4/2
f 94/4/2 93/4/2 95/4/2
f 95/4/2 93/4/2 96/4/2
f 93/4/2 71/4/2 97/4/2
f 96/4/2 93/4/2 97/4/2
f 97/4/2 71/4/2 98/4/2
f 94/3/2 95/3/2 99/3/2
f 95/4/2 96/4/2 100/4/2
f 99/3/2 95/3/2 100/3/2
f 96/3/2 97/3/2 101/3/2
f 100/4/2 96/4/2 101/4/2
f 97/2/2 98/2/2 102/2/2
f 101/3/2 97/3/2 102/3/2
f 99/4/2 100/4/2 103/4/2
f 102/2/2 98/2/2 103/2/2
f 101/4/2 102/4/2 103/4/2
f 100/4/2 101/4/2 103/4/2
f 103/2/2 98/2/2 104/2/2
f 99/4/2 103/4/2 105/4/2
f 103/4/2 104/4/2 105/4/2
f 105/4/2 104/4/2 106/4/2
f 99/4/2 105/4/2 107/4/2
f 105/2/2 106/2/2 107/2/2
f 107/2/2 106/2/2 108/2/2
f 106/4/2 104/4/2 109/4/2
f 108/2/2 106/2/2 109/2/2
f 107/4/2 108/4/2 110/4/2
f 99/4/2 107/4/2 110/4/2
f 110/4/2 108/4/2 111/4/2
f 99/4/2 110/4/2 112/4/2
f 110/2/2 111/2/2 112/2/2
f 111/4/2 108/4/2 113/4/2
f 112/2/2 111/2/2 113/2/2
f 108/3/2 109/3/2 114/3/2
f 113/4/2 108/4/2 114/4/2
f 109/4/2 104/4/2 115/4/2
f 114/3/2 109/3/2 115/3/2
f 113/4/2 114/4/2 116/4/2
f 115/4/2 104/4/2 116/4/2
f 114/4/2 115/4/2 116/4/2
f 112/4/2 113/4/2 116/4/2
f 116/4/2 104/4/2 117/4/2
f 112/4/2 116/4/2 118/4/2
f 116/2/2 117/2/2 118/2/2
f 117/4/2 104/4/2 119/4/2
f 118/2/2 117/2/2 119/2/2
f 99/4/2 112/4/2 120/4/2
f 112/4/2 118/4/2 120/4/2
f 118/4/2 119/4/2 120/4/2
f 120/4/2 119/4/2 121/4/2
f 121/4/2 119/4/2 122/4/2
f 99/4/2 120/4/2 123/4/2
f 120/2/2 121/2/2 123/2/2
f 121/3/2 122/3/2 124/3/2
f 123/2/2 121/2/2 124/2/2
f 123/4/2 124/4/2 125/4/2
f 124/3/2 122/3/2 125/3/2
f 122/4/2 119/4/2 126/4/2
f 125/3/2 122/3/2 126/3/2
f 119/4/2 104/4/2 127/4/2
f 126/4/2 119/4/2 127/4/2
f 127/4/2 104/4/2 128/4/2
f 125/4/2 126/4/2 129/4/2
f 126/4/2 127/4/2 129/4/2
f 127/2/2 128/2/2 129/2/2
f 129/2/2 128/2/2 130/2/2
f 123/4/2 125/4/2 131/4/2
f 99/4/2 123/4/2 131/4/2
f 129/4/2 130/4/2 131/4/2
f 125/4/2 129/4/2 131/4/2
f 131/4/2 130/4/2 132/4/2
f 132/4/2 130/4/2 133/4/2
f 133/4/2 130/4/2 134/4/2
f 99/4/2 131/4/2 135/4/2
f 131/2/2 132/2/2 135/2/2
f 132/4/2 133/4/2 136/4/2
f 135/2/2 132/2/2 136/2/2
f 135/4/2 136/4/2 137/4/2
f 136/4/2 133/4/2 137/4/2
f 137/4/2 133/4/2 138/4/2
f 133/3/2 134/3/2 139/3/2
f 138/4/2 133/4/2 139/4/2
f 139/3/2 134/3/2 140/3/2
f 137/2/2 138/2/2 141/2/2
f 135/4/2 137/4/2 141/4/2
f 139/4/2 140/4/2 142/4/2
f 141/2/2 138/2/2 142/2/2
f 138/4/2 139/4/2 142/4/2
f 99/4/2 135/4/2 143/4/2
f 135/4/2 141/4/2 143/4/2
f 141/4/2 142/4/2 143/4/2
f 142/4/2 140/4/2 144/4/2
f 143/4/2 142/4/2 144/4/2
f 149/4/3 146/4/3 145/4/3
f 150/4/3 146/4/3 149/4/3
f 151/4/3 146/4/3 150/4/3
f 152/4/3 146/4/3 151/4/3
f 153/4/3 146/4/3 152/4/3
f 154/4/3 146/4/3 153/4/3
f 155/4/3 149/4/3 145/4/3
f 155/2/3 150/2/3 149/2/3
f 156/4/3 151/4/3 150/4/3
f 156/2/3 150/2/3 155/2/3
f 157/4/3 151/4/3 156/4/3
f 158/4/3 151/4/3 157/4/3
f 159/2/3 152/2/3 151/2/3
f 159/4/3 151/4/3 158/4/3
f 160/4/3 153/4/3 152/4/3
f 160/2/3 152/2/3 159/2/3
f 161/4/3 153/4/3 160/4/3
f 162/4/3 153/4/3 161/4/3
f 163/4/3 153/4/3 162/4/3
f 164/4/3 153/4/3 163/4/3
f 165/2/3 147/2/3 146/2/3
f 165/4/3 146/4/3 154/4/3
f 166/4/3 148/4/3 147/4/3
f 166/2/3 147/2/3 165/2/3
f 167/4/3 156/4/3 155/4/3
f 167/4/3 157/4/3 156/4/3
f 168/4/3 157/4/3 167/4/3
f 169/3/3 158/3/3 157/3/3
f 169/4/3 157/4/3 168/4/3
f 170/4/3 159/4/3 158/4/3
f 170/3/3 158/3/3 169/3/3
f 170/4/3 160/4/3 159/4/3
f 170/4/3 161/4/3 160/4/3
f 171/4/3 161/4/3 170/4/3
f 172/2/3 162/2/3 161/2/3
f 172/4/3 161/4/3 171/4/3
f 173/4/3 163/4/3 162/4/3
f 173/2/3 162/2/3 172/2/3
f 174/3/3 164/3/3 163/3/3
f 174/4/3 163/4/3 173/4/3
f 175/4/3 153/4/3 164/4/3
f 175/2/3 154/2/3 153/2/3
f 176/4/3 165/4/3 154/4/3
f 176/2/3 154/2/3 175/2/3
f 176/4/3 166/4/3 165/4/3
f 177/2/3 168/2/3 167/2/3
f 177/4/3 167/4/3 155/4/3
f 178/2/3 168/2/3 177/2/3
f 179/3/3 169/3/3 168/3/3
f 179/2/3 168/2/3 178/2/3
f 179/3/3 170/3/3 169/3/3
f 179/3/3 171/3/3 170/3/3
f 180/3/3 171/3/3 179/3/3
f 181/3/3 171/3/3 180/3/3
f 182/4/3 173/4/3 172/4/3
f 182/4/3 172/4/3 171/4/3
f 183/3/3 174/3/3 173/3/3
f 183/4/3 173/4/3 182/4/3
f 184/3/3 164/3/3 174/3/3
f 184/3/3 174/3/3 183/3/3
f 185/4/3 175/4/3 164/4/3
f 185/3/3 164/3/3 184/3/3
f 185/4/3 176/4/3 175/4/3
f 186/4/3 155/4/3 145/4/3
f 186/4/3 178/4/3 177/4/3
f 186/4/3 177/4/3 155/4/3
f 187/4/3 178/4/3 186/4/3
f 188/4/3 178/4/3 187/4/3
f 189/3/3 179/3/3 178/3/3
f 189/4/3 178/4/3 188/4/3
f 189/3/3 180/3/3 179/3/3
f 190/3/3 180/3/3 189/3/3
f 191/4/3 181/4/3 180/4/3
f 191/3/3 180/3/3 190/3/3
f 192/4/3 181/4/3 191/4/3
f 193/3/3 171/3/3 181/3/3
f 193/4/3 181/4/3 192/4/3
f 194/4/3 182/4/3 171/4/3
f 194/3/3 171/3/3 193/3/3
f 195/2/3 184/2/3 183/2/3
f 195/4/3 182/4/3 194/4/3
f 195/2/3 183/2/3 182/2/3
f 196/4/3 185/4/3 184/4/3
f 196/2/3 184/2/3 195/2/3
f 197/4/3 186/4/3 145/4/3
f 198/2/3 187/2/3 186/2/3
f 198/4/3 186/4/3 197/4/3
f 199/4/3 188/4/3 187/4/3
f 199/2/3 187/2/3 198/2/3
f 200/2/3 190/2/3 189/2/3
f 200/4/3 188/4/3 199/4/3
f 200/2/3 189/2/3 188/2/3
f 201/4/3 191/4/3 190/4/3
f 201/2/3 190/2/3 200/2/3
f 202/3/3 192/3/3 191/3/3
f 202/4/3 191/4/3 201/4/3
f 203/4/3 194/4/3 193/4/3
f 203/3/3 192/3/3 202/3/3
f 203/4/3 193/4/3 192/4/3
f 203/4/3 196/4/3 195/4/3
f 203/4/3 195/4/3 194/4/3
f 204/4/3 185/4/3 196/4/3
f 204/4/3 196/4/3 203/4/3
f 204/4/3 176/4/3 185/4/3
f 204/4/3 166/4/3 176/4/3
f 204/4/3 148/4/3 166/4/3
f 205/4/4 206/4/4 211/4/4
f 211/4/4 206/4/4 212/4/4
f 206/3/4 207/3/4 213/3/4
f 212/4/4 206/4/4 213/4/4
f 207/4/4 208/4/4 214/4/4
f 213/3/4 207/3/4 214/3/4
f 208/2/4 209/2/4 215/2/4
f 214/4/4 208/4/4 215/4/4
f 209/4/4 210/4/4 216/4/4
f 215/2/4 209/2/4 216/2/4
f 216/4/4 210/4/4 217/4/4
f 217/4/4 210/4/4 218/4/4
f 211/3/4 212/3/4 219/3/4
f 205/4/4 211/4/4 219/4/4
f 214/4/4 215/4/4 220/4/4
f 219/3/4 212/3/4 220/3/4
f 212/4/4 213/4/4 220/4/4
f 216/4/4 217/4/4 220/4/4
f 215/4/4 216/4/4 220/4/4
f 213/4/4 214/4/4 220/4/4
f 220/4/4 217/4/4 221/4/4
f 221/4/4 217/4/4 222/4/4
f 222/4/4 217/4/4 223/4/4
f 223/4/4 217/4/4 224/4/4
f 224/4/4 217/4/4 225/4/4
f 217/3/4 218/3/4 226/3/4
f 225/4/4 217/4/4 226/4/4
f 226/3/4 218/3/4 227/3/4
f 218/4/4 210/4/4 228/4/4
f 227/3/4 218/3/4 228/3/4
f 219/4/4 220/4/4 229/4/4
f 220/4/4 221/4/4 229/4/4
f 221/2/4 222/2/4 229/2/4
f 222/4/4 223/4/4 230/4/4
f 229/2/4 222/2/4 230/2/4
f 223/2/4 224/2/4 231/2/4
f 230/4/4 223/4/4 231/4/4
f 224/4/4 225/4/4 232/4/4
f 231/2/4 224/2/4 232/2/4
f 232/4/4 225/4/4 233/4/4
f 233/4/4 225/4/4 234/4/4
f 226/2/4 227/2/4 235/2/4
f 234/4/4 225/4/4 235/4/4
f 225/2/4 226/2/4 235/2/4
f 227/4/4 228/4/4 236/4/4
f 235/2/4 227/2/4 236/2/4
f 230/4/4 231/4/4 237/4/4
f 232/4/4 233/4/4 237/4/4
f 219/4/4 229/4/4 237/4/4
f 231/4/4 232/4/4 237/4/4
f 229/4/4 230/4/4 237/4/4
f 237/4/4 233/4/4 238/4/4
f 233/3/4 234/3/4 239/3/4
f 238/4/4 233/4/4 239/4/4
f 234/4/4 235/4/4 240/4/4
f 239/3/4 234/3/4 240/3/4
f 235/4/4 236/4/4 240/4/4
f 240/4/4 236/4/4 241/4/4
f 236/4/4 228/4/4 242/4/4
f 241/4/4 236/4/4 242/4/4
f 228/4/4 210/4/4 242/4/4
f 237/3/4 238/3/4 243/3/4
f 219/4/4 237/4/4 243/4/4
f 243/3/4 238/3/4 244/3/4
f 240/4/4 241/4/4 245/4/4
f 244/3/4 238/3/4 245/3/4
f 239/4/4 240/4/4 245/4/4
f 238/4/4 239/4/4 245/4/4
f 245/4/4 241/4/4 246/4/4
f 246/4/4 241/4/4 247/4/4
f 247/4/4 241/4/4 248/4/4
f 241/3/4 242/3/4 249/3/4
f 248/4/4 241/4/4 249/4/4
f 249/3/4 242/3/4 250/3/4
f 250/3/4 242/3/4 251/3/4
f 242/4/4 210/4/4 252/4/4
f 251/3/4 242/3/4 252/3/4
f 205/4/4 219/4/4 253/4/4
f 243/4/4 244/4/4 253/4/4
f 219/4/4 243/4/4 253/4/4
f 244/2/4 245/2/4 254/2/4
f 253/4/4 244/4/4 254/4/4
f 245/2/4 246/2/4 254/2/4
f 246/4/4 247/4/4 255/4/4
f 254/2/4 246/2/4 255/2/4
f 247/2/4 248/2/4 256/2/4
f 255/4/4 247/4/4 256/4/4
f 249/4/4 250/4/4 257/4/4
f 256/2/4 248/2/4 257/2/4
f 248/4/4 249/4/4 257/4/4
f 250/3/4 251/3/4 258/3/4
f 257/4/4 250/4/4 258/4/4
f 251/4/4 252/4/4 259/4/4
f 258/3/4 251/3/4 259/3/4
f 252/4/4 210/4/4 260/4/4
f 259/4/4 252/4/4 260/4/4
f 263/4/5 262/4/5 261/4/5
f 264/4/5 262/4/5 263/4/5
f 265/4/6 266/4/6 267/4/6
f 267/4/6 266/4/6 268/4/6
